{"asset":{"version":"2.0","generator":"THREE.GLTFExporter r172"},"scenes":[{"nodes":[0,1]}],"scene":0,"nodes":[{"mesh":0},{"mesh":1}],"bufferViews":[{"buffer":0,"byteOffset":0,"byteLength":339984,"target":34962,"byteStride":12},{"buffer":0,"byteOffset":339984,"byteLength":226656,"target":34962,"byteStride":8},{"buffer":0,"byteOffset":566640,"byteLength":339984,"target":34962,"byteStride":12},{"buffer":0,"byteOffset":906624,"byteLength":720,"target":34962,"byteStride":12},{"buffer":0,"byteOffset":907344,"byteLength":480,"target":34962,"byteStride":8},{"buffer":0,"byteOffset":907824,"byteLength":720,"target":34962,"byteStride":12}],"buffers":[{"byteLength":908544,"uri":"data:application/octet-stream;base64,"}],"accessors":[{"bufferView":0,"componentType":5126,"count":28332,"max":[879.7669677734375,8,804.7427368164062],"min":[-1103.546630859375,-1.4266390260982142e-13,-995.898681640625],"type":"VEC3"},{"bufferView":1,"componentType":5126,"count":28332,"max":[1103.546630859375,804.7427368164062],"min":[-995.898681640625,-995.898681640625],"type":"VEC2"},{"bufferView":2,"componentType":5126,"count":28332,"max":[0.9999788403511047,1,0.9999915957450867],"min":[-0.9999884963035583,-1,-0.9998198747634888],"type":"VEC3"},{"bufferView":3,"componentType":5126,"count":60,"max":[898.7838134765625,0,846.7967529296875],"min":[-1117.0452880859375,-2,-1026.5030517578125],"type":"VEC3"},{"bufferView":4,"componentType":5126,"count":60,"max":[1117.0452880859375,846.7967529296875],"min":[-898.7838134765625,-1026.5030517578125],"type":"VEC2"},{"bufferView":5,"componentType":5126,"count":60,"max":[0.8247125744819641,1,0.7607292532920837],"min":[-0.7474156022071838,-1,-0.7490979433059692],"type":"VEC3"}],"materials":[{"pbrMetallicRoughness":{"baseColorFactor":[0.31854677811435356,0.31854677811435356,0.31854677811435356,1],"metallicFactor":0,"roughnessFactor":1}},{"pbrMetallicRoughness":{"baseColorFactor":[0.7230551289161951,0.7230551289161951,0.7230551289161951,1],"metallicFactor":0,"roughnessFactor":1},"doubleSided":true}],"meshes":[{"primitives":[{"mode":4,"attributes":{"POSITION":0,"TEXCOORD_0":1,"NORMAL":2},"material":0}]},{"primitives":[{"mode":4,"attributes":{"POSITION":3,"TEXCOORD_0":4,"NORMAL":5},"material":1}]}]}