{"asset":{"version":"2.0","generator":"THREE.GLTFExporter r172"},"scenes":[{"nodes":[0,1]}],"scene":0,"nodes":[{"name":"Buildings","mesh":0},{"name":"Ground","mesh":1}],"bufferViews":[{"buffer":0,"byteOffset":0,"byteLength":687744,"target":34962,"byteStride":12},{"buffer":0,"byteOffset":687744,"byteLength":458496,"target":34962,"byteStride":8},{"buffer":0,"byteOffset":1146240,"byteLength":687744,"target":34962,"byteStride":12},{"buffer":0,"byteOffset":1833984,"byteLength":720,"target":34962,"byteStride":12},{"buffer":0,"byteOffset":1834704,"byteLength":480,"target":34962,"byteStride":8},{"buffer":0,"byteOffset":1835184,"byteLength":720,"target":34962,"byteStride":12}],"buffers":[{"byteLength":1835904,"uri":"data:application/octet-stream;base64,"}],"accessors":[{"bufferView":0,"componentType":5126,"count":57312,"max":[1126.677978515625,8,991.7340698242188],"min":[-1010.150634765625,-1.6059281183512797e-13,-1116.7862548828125],"type":"VEC3"},{"bufferView":1,"componentType":5126,"count":57312,"max":[1010.150634765625,991.7340698242188],"min":[-1126.677978515625,-1116.7862548828125],"type":"VEC2"},{"bufferView":2,"componentType":5126,"count":57312,"max":[0.9999223351478577,1,0.9999916553497314],"min":[-0.9999884366989136,-1,-0.9998555183410645],"type":"VEC3"},{"bufferView":3,"componentType":5126,"count":60,"max":[1127.93017578125,0,1003.11962890625],"min":[-1030.4356689453125,-2,-1118.571533203125],"type":"VEC3"},{"bufferView":4,"componentType":5126,"count":60,"max":[1030.4356689453125,1003.11962890625],"min":[-1127.93017578125,-1118.571533203125],"type":"VEC2"},{"bufferView":5,"componentType":5126,"count":60,"max":[0.768199622631073,1,0.7594674825668335],"min":[-0.8331456184387207,-1,-0.8296231031417847],"type":"VEC3"}],"materials":[{"pbrMetallicRoughness":{"baseColorFactor":[0.31854677811435356,0.31854677811435356,0.31854677811435356,1],"metallicFactor":0,"roughnessFactor":1}},{"pbrMetallicRoughness":{"baseColorFactor":[0.7230551289161951,0.7230551289161951,0.7230551289161951,1],"metallicFactor":0,"roughnessFactor":1},"doubleSided":true}],"meshes":[{"primitives":[{"mode":4,"attributes":{"POSITION":0,"TEXCOORD_0":1,"NORMAL":2},"material":0}]},{"primitives":[{"mode":4,"attributes":{"POSITION":3,"TEXCOORD_0":4,"NORMAL":5},"material":1}]}]}