{"asset":{"version":"2.0","generator":"THREE.GLTFExporter r172"},"scenes":[{"nodes":[0,1]}],"scene":0,"nodes":[{"name":"Buildings","mesh":0},{"name":"Ground","mesh":1}],"bufferViews":[{"buffer":0,"byteOffset":0,"byteLength":144288,"target":34962,"byteStride":12},{"buffer":0,"byteOffset":144288,"byteLength":96192,"target":34962,"byteStride":8},{"buffer":0,"byteOffset":240480,"byteLength":144288,"target":34962,"byteStride":12},{"buffer":0,"byteOffset":384768,"byteLength":9072,"target":34962,"byteStride":12},{"buffer":0,"byteOffset":393840,"byteLength":6048,"target":34962,"byteStride":8},{"buffer":0,"byteOffset":399888,"byteLength":9072,"target":34962,"byteStride":12}],"buffers":[{"byteLength":408960,"uri":"data:application/octet-stream;base64,"}],"accessors":[{"bufferView":0,"componentType":5126,"count":12024,"max":[585.0685424804688,20,408.2450866699219],"min":[-426.0646057128906,-7.795735492690734e-14,-595.4010620117188],"type":"VEC3"},{"bufferView":1,"componentType":5126,"count":12024,"max":[426.0646057128906,408.2450866699219],"min":[-585.0685424804688,-595.4010620117188],"type":"VEC2"},{"bufferView":2,"componentType":5126,"count":12024,"max":[1,1,0.999996542930603],"min":[-0.9999982714653015,-1,-0.9999980926513672],"type":"VEC3"},{"bufferView":3,"componentType":5126,"count":756,"max":[723.4617919921875,0,575.3186645507812],"min":[-488.48907470703125,-2,-636.6176147460938],"type":"VEC3"},{"bufferView":4,"componentType":5126,"count":756,"max":[488.48907470703125,575.3186645507812],"min":[-723.4617919921875,-636.6176147460938],"type":"VEC2"},{"bufferView":5,"componentType":5126,"count":756,"max":[0.9987955689430237,1,0.998798668384552],"min":[-0.9987952709197998,-1,-0.9987983703613281],"type":"VEC3"}],"materials":[{"pbrMetallicRoughness":{"baseColorFactor":[0.31854677811435356,0.31854677811435356,0.31854677811435356,1],"metallicFactor":0,"roughnessFactor":1}},{"pbrMetallicRoughness":{"baseColorFactor":[0.7230551289161951,0.7230551289161951,0.7230551289161951,1],"metallicFactor":0,"roughnessFactor":1},"doubleSided":true}],"meshes":[{"primitives":[{"mode":4,"attributes":{"POSITION":0,"TEXCOORD_0":1,"NORMAL":2},"material":0}]},{"primitives":[{"mode":4,"attributes":{"POSITION":3,"TEXCOORD_0":4,"NORMAL":5},"material":1}]}]}