{"asset":{"version":"2.0","generator":"THREE.GLTFExporter r172"},"scenes":[{"nodes":[0,1]}],"scene":0,"nodes":[{"mesh":0},{"matrix":[1,0,0,0,0,2.220446049250313e-16,-1,0,0,1,2.220446049250313e-16,0,0,-10,0,1],"mesh":1}],"bufferViews":[{"buffer":0,"byteOffset":0,"byteLength":224784,"target":34962,"byteStride":12},{"buffer":0,"byteOffset":224784,"byteLength":149856,"target":34962,"byteStride":8},{"buffer":0,"byteOffset":374640,"byteLength":224784,"target":34962,"byteStride":12},{"buffer":0,"byteOffset":599424,"byteLength":432,"target":34962,"byteStride":12},{"buffer":0,"byteOffset":599856,"byteLength":288,"target":34962,"byteStride":8},{"buffer":0,"byteOffset":600144,"byteLength":432,"target":34962,"byteStride":12}],"buffers":[{"byteLength":600576,"uri":"data:application/octet-stream;base64,"}],"accessors":[{"bufferView":0,"componentType":5126,"count":18732,"max":[101.5248031616211,28,316.6639404296875],"min":[-90.306640625,-2.865382017487421e-14,-271.43792724609375],"type":"VEC3"},{"bufferView":1,"componentType":5126,"count":18732,"max":[316.1763000488281,316.6639404296875],"min":[-271.4375915527344,-271.43792724609375],"type":"VEC2"},{"bufferView":2,"componentType":5126,"count":18732,"max":[1,1,1],"min":[-1,-1,-1],"type":"VEC3"},{"bufferView":3,"componentType":5126,"count":36,"max":[90.306640625,330.2195129394531,10],"min":[-101.5248031616211,-271.4391784667969,0],"type":"VEC3"},{"bufferView":4,"componentType":5126,"count":36,"max":[330.2195129394531,330.2195129394531],"min":[-271.4391784667969,-271.4391784667969],"type":"VEC2"},{"bufferView":5,"componentType":5126,"count":36,"max":[1,1,1],"min":[-1,-1,-1],"type":"VEC3"}],"materials":[{"pbrMetallicRoughness":{"baseColorFactor":[0.31854677811435356,0.31854677811435356,0.31854677811435356,1],"metallicFactor":0,"roughnessFactor":1}},{"pbrMetallicRoughness":{"baseColorFactor":[0.7230551289161951,0.7230551289161951,0.7230551289161951,1],"metallicFactor":0,"roughnessFactor":1},"doubleSided":true}],"meshes":[{"primitives":[{"mode":4,"attributes":{"POSITION":0,"TEXCOORD_0":1,"NORMAL":2},"material":0}]},{"primitives":[{"mode":4,"attributes":{"POSITION":3,"TEXCOORD_0":4,"NORMAL":5},"material":1}]}]}