{"asset":{"version":"2.0","generator":"THREE.GLTFExporter r172"},"scenes":[{"nodes":[0,1]}],"scene":0,"nodes":[{"mesh":0},{"mesh":1}],"bufferViews":[{"buffer":0,"byteOffset":0,"byteLength":166176,"target":34962,"byteStride":12},{"buffer":0,"byteOffset":166176,"byteLength":110784,"target":34962,"byteStride":8},{"buffer":0,"byteOffset":276960,"byteLength":166176,"target":34962,"byteStride":12},{"buffer":0,"byteOffset":443136,"byteLength":3312,"target":34962,"byteStride":12},{"buffer":0,"byteOffset":446448,"byteLength":2208,"target":34962,"byteStride":8},{"buffer":0,"byteOffset":448656,"byteLength":3312,"target":34962,"byteStride":12}],"buffers":[{"byteLength":451968,"uri":"data:application/octet-stream;base64,"}],"accessors":[{"bufferView":0,"componentType":5126,"count":13848,"max":[543.9078369140625,98,545.029052734375],"min":[-609.807861328125,-5.727625269685496e-14,-696.124267578125],"type":"VEC3"},{"bufferView":1,"componentType":5126,"count":13848,"max":[609.807861328125,545.029052734375],"min":[-696.124267578125,-696.124267578125],"type":"VEC2"},{"bufferView":2,"componentType":5126,"count":13848,"max":[0.9999032020568848,1,1],"min":[-0.99998539686203,-1,-0.9999832510948181],"type":"VEC3"},{"bufferView":3,"componentType":5126,"count":276,"max":[578.2864990234375,0,636.7109375],"min":[-664.5696411132812,-2,-760.0451049804688],"type":"VEC3"},{"bufferView":4,"componentType":5126,"count":276,"max":[664.5696411132812,636.7109375],"min":[-760.0451049804688,-760.0451049804688],"type":"VEC2"},{"bufferView":5,"componentType":5126,"count":276,"max":[0.9999178051948547,1,0.9715022444725037],"min":[-0.9966845512390137,-1,-0.9830474853515625],"type":"VEC3"}],"materials":[{"pbrMetallicRoughness":{"baseColorFactor":[0.31854677811435356,0.31854677811435356,0.31854677811435356,1],"metallicFactor":0,"roughnessFactor":1}},{"pbrMetallicRoughness":{"baseColorFactor":[0.7230551289161951,0.7230551289161951,0.7230551289161951,1],"metallicFactor":0,"roughnessFactor":1},"doubleSided":true}],"meshes":[{"primitives":[{"mode":4,"attributes":{"POSITION":0,"TEXCOORD_0":1,"NORMAL":2},"material":0}]},{"primitives":[{"mode":4,"attributes":{"POSITION":3,"TEXCOORD_0":4,"NORMAL":5},"material":1}]}]}